<svg id="assets" xmlns="http://www.w3.org/2000/svg" viewBox="0 0 322 216"><defs><style>.cls-1{fill:#5e7886}.cls-4{fill:#5f737d}.cls-5{fill:#63b2bf}.cls-6{fill:#5a1d41}</style></defs><path class="cls-1" d="M42.906 32.576h91.132V186H42.906z"/><path fill="#8ca4b3" d="M53.288 42.958h70.368V186H53.288z"/><circle cx="115.004" cy="116.786" r="3.461" fill="#3d657b"/><path class="cls-4" d="M165.853 187.984a2 2 0 01-2-2V61.791a2 2 0 114 0v124.193a2 2 0 01-2 2z"/><path class="cls-4" d="M181.015 66.961l-12.47 12.309a2.075 2.075 0 01-2.639.36 2 2 0 01-.333-3.039l12.437-12.276a2.108 2.108 0 012.709-.367 2 2 0 01.296 3.013zM181.015 86.663l-12.469 12.31a2.075 2.075 0 01-2.639.36 2 2 0 01-.333-3.039l12.437-12.276a2.108 2.108 0 012.709-.367 2 2 0 01.295 3.012zM151.617 112.523l12.469 12.31a2.075 2.075 0 002.639.36 2 2 0 00.333-3.039l-12.437-12.276a2.108 2.108 0 00-2.709-.367 2 2 0 00-.295 3.012zM154.852 78.518l9.541 11.015a2.075 2.075 0 002.639.36 2 2 0 00.333-3.039l-9.508-10.981a2.108 2.108 0 00-2.709-.367 2 2 0 00-.296 3.012z"/><ellipse class="cls-5" cx="154.849" cy="85.617" rx="19.078" ry="10.646" transform="rotate(-84.192 154.848 85.618)"/><path class="cls-6" d="M152.553 95.125c3.114.317 6.091-3.881 6.65-9.375s-1.512-10.205-4.626-10.522l-6.037-1.908c-3.114-.317-6.091 3.881-6.65 9.375s1.51 10.205 4.627 10.522z"/><path d="M148.52 93.85c3.114.317 6.091-3.881 6.65-9.375s-1.512-10.205-4.626-10.522l-2-.633c-3.114-.317-6.091 3.881-6.65 9.375s1.506 10.205 4.623 10.522z" fill="#358896"/><ellipse class="cls-5" cx="147.529" cy="83.268" rx="10" ry="5.667" transform="rotate(-84.192 147.528 83.269)"/><path class="cls-6" d="M175.814 123.773a3.67 3.67 0 01-3.656-3.985l3.656-42.348zM188.665 88.234l4 35.614a4.85 4.85 0 01-3.688 5.258"/><path class="cls-6" d="M190.647 132.773h-10.826a4.674 4.674 0 01-4.674-4.674V66.235a4.8 4.8 0 014.8-4.8h.457a9.378 9.378 0 019.377 9.247z"/><path class="cls-4" d="M158.069 183.2h15.582a4.728 4.728 0 014.728 4.728h-25.038a4.728 4.728 0 014.728-4.728z"/><path class="cls-1" d="M203.906 33.71h110.863V108H203.906z"/><path fill="#fff" d="M212.478 56.709h92.859v43.29h-92.859z"/><path class="cls-6" d="M305.337 84.57l-11.9-8.15a18.085 18.085 0 00-20.134-.963l-8.427 5.112-19.691-15.436a18.068 18.068 0 00-21.977-.156l-10.73 8.164v-31.43h92.859z"/></svg>