<svg id="assets" xmlns="http://www.w3.org/2000/svg" viewBox="0 0 322 216"><defs><style>.cls-1{fill:#e9edf8;}.cls-2{fill:#54707e;}.cls-3{fill:#ccd4d9;}.cls-4{fill:#5e7886;}.cls-5{fill:#fff;}.cls-6{fill:#0f364b;}.cls-7{fill:#001927;}.cls-8{fill:#0a2230;}.cls-9{fill:#708793;}.cls-10{fill:#5f737d;}.cls-11{fill:#63b2bf;}.cls-12{fill:#7f1652;}.cls-13{fill:#5a1d41;}.cls-14{fill:#f0a534;}.cls-15{fill:#edf0f2;}</style></defs><title>gr_subscribe_r_lg</title><ellipse class="cls-1" cx="158.633" cy="198.768" rx="158.633" ry="10.064"/><path class="cls-2" d="M18.319,101.636c-2.244,1.536-3.107,3.88-3.439,6.512a68.591,68.591,0,0,0,.083,12.615c.039.639,1.04.644,1,0-.208-3.382-.34-6.782-.249-10.172.08-2.965.461-6.279,3.111-8.092.528-.361.028-1.228-.5-.863Z"/><path class="cls-2" d="M15.419,126.752v3a.5.5,0,0,0,1,0v-3a.5.5,0,0,0-1,0Z"/><path class="cls-3" d="M17.032,135.7l-.99.681c-.527.362-.027,1.23.5.863l.99-.681c.527-.362.027-1.23-.5-.863Z"/><path class="cls-3" d="M18.419,136.752v.667a.5.5,0,0,0,1,0v-.667a.5.5,0,0,0-1,0Z"/><rect class="cls-4" x="117.586" y="32.252" width="3.5" height="147.299"/><polygon class="cls-5" points="145.336 67.252 93.336 67.252 101.836 39.252 136.836 39.252 145.336 67.252"/><rect class="cls-4" x="214.586" y="21.252" width="107.414" height="111"/><rect class="cls-6" x="221.919" y="27.752" width="100.081" height="97.333"/><polygon class="cls-3" points="322 34.016 219.086 34.016 224.62 28.435 322 28.435 322 34.016"/><polygon class="cls-3" points="322 43.016 219.086 43.016 224.62 37.435 322 37.435 322 43.016"/><polygon class="cls-3" points="322 52.016 219.086 52.016 224.62 46.435 322 46.435 322 52.016"/><polygon class="cls-3" points="322 61.016 219.086 61.016 224.62 55.435 322 55.435 322 61.016"/><polygon class="cls-3" points="322 70.016 219.086 70.016 224.62 64.435 322 64.435 322 70.016"/><polygon class="cls-3" points="322 79.016 219.086 79.016 224.62 73.435 322 73.435 322 79.016"/><polygon class="cls-3" points="322 88.016 219.086 88.016 224.62 82.435 322 82.435 322 88.016"/><polygon class="cls-3" points="322 97.016 219.086 97.016 224.62 91.435 322 91.435 322 97.016"/><polygon class="cls-3" points="322 106.016 219.086 106.016 224.62 100.435 322 100.435 322 106.016"/><polygon class="cls-3" points="322 115.016 219.086 115.016 224.62 109.435 322 109.435 322 115.016"/><polygon class="cls-3" points="322 124.016 219.086 124.016 224.62 118.435 322 118.435 322 124.016"/><rect class="cls-4" x="90.586" y="107.752" width="209" height="64"/><rect class="cls-7" x="100.086" y="116.252" width="190" height="55"/><rect class="cls-7" x="100.086" y="117.752" width="190" height="53.5"/><polygon class="cls-7" points="100.586 196.252 94.586 196.252 91.086 180.752 104.086 180.752 100.586 196.252"/><polygon class="cls-7" points="295.586 196.252 289.586 196.252 286.086 180.752 299.086 180.752 295.586 196.252"/><rect class="cls-4" x="83.086" y="168.252" width="225" height="13"/><circle class="cls-8" cx="114.586" cy="150.752" r="3"/><circle class="cls-8" cx="114.586" cy="127.752" r="3"/><circle class="cls-8" cx="137.586" cy="150.752" r="3"/><circle class="cls-8" cx="137.586" cy="127.752" r="3"/><circle class="cls-8" cx="160.586" cy="150.752" r="3"/><circle class="cls-8" cx="160.586" cy="127.752" r="3"/><circle class="cls-8" cx="183.586" cy="150.752" r="3"/><circle class="cls-8" cx="183.586" cy="127.752" r="3"/><circle class="cls-8" cx="206.586" cy="150.752" r="3"/><circle class="cls-8" cx="206.586" cy="127.752" r="3"/><circle class="cls-8" cx="229.586" cy="150.752" r="3"/><circle class="cls-8" cx="229.586" cy="127.752" r="3"/><circle class="cls-8" cx="252.586" cy="150.752" r="3"/><circle class="cls-8" cx="252.586" cy="127.752" r="3"/><circle class="cls-8" cx="275.586" cy="150.752" r="3"/><circle class="cls-8" cx="275.586" cy="127.752" r="3"/><path class="cls-8" d="M125.609,115.752s-12.246-9-26.023,0"/><path class="cls-8" d="M149.034,115.752s-12.246-9-26.023,0"/><path class="cls-8" d="M172.46,115.752s-12.246-9-26.023,0"/><path class="cls-8" d="M195.885,115.752s-12.246-9-26.023,0"/><path class="cls-8" d="M219.31,115.752s-12.246-9-26.023,0"/><path class="cls-8" d="M242.735,115.752s-12.246-9-26.023,0"/><path class="cls-8" d="M266.161,115.752s-12.246-9-26.023,0"/><path class="cls-8" d="M289.586,115.752s-12.246-9-26.023,0"/><path class="cls-7" d="M125.609,116.063a27.206,27.206,0,0,0-26.023,0"/><path class="cls-7" d="M149.034,116.063a27.206,27.206,0,0,0-26.023,0"/><path class="cls-7" d="M172.459,116.063a27.206,27.206,0,0,0-26.023,0"/><path class="cls-7" d="M195.885,116.063a27.206,27.206,0,0,0-26.023,0"/><path class="cls-7" d="M219.31,116.063a27.206,27.206,0,0,0-26.023,0"/><path class="cls-7" d="M242.735,116.063a27.206,27.206,0,0,0-26.023,0"/><path class="cls-7" d="M266.161,116.063a27.206,27.206,0,0,0-26.023,0"/><path class="cls-7" d="M289.586,116.063a27.206,27.206,0,0,0-26.023,0"/><rect class="cls-7" x="99.586" y="115.752" width="191" height="44"/><path class="cls-7" d="M101.267,114.752s-7.515,5.78,0,12.282"/><path class="cls-7" d="M101.267,124.752s-7.515,8.471,0,18"/><path class="cls-8" d="M123.287,139.752a4.96,4.96,0,0,0,0-7.222A10.553,10.553,0,0,1,123.287,139.752Z"/><path class="cls-8" d="M119.2,126.842a12.578,12.578,0,0,1-12.222,0A29.54,29.54,0,0,0,119.2,126.842Z"/><path class="cls-8" d="M119.2,142.44a12.578,12.578,0,0,0-12.222,0A29.54,29.54,0,0,1,119.2,142.44Z"/><circle class="cls-8" cx="124.586" cy="127.752" r="2"/><circle class="cls-8" cx="124.586" cy="145.752" r="2"/><path class="cls-7" d="M304.086,168.252h-218l3.6-6.315a7.8,7.8,0,0,1,6.726-4.185l199.674,1.1c4.424.024,8,4.225,8,9.4Z"/><path class="cls-8" d="M98.856,160.172l-.541-.841c14.118-9.078,26.869-.076,27,.016l-.586.81C124.605,160.069,112.386,151.472,98.856,160.172Z"/><path class="cls-8" d="M122.651,160.172l-.541-.841c14.122-9.079,26.871-.076,27,.016l-.586.81C148.4,160.069,136.182,151.472,122.651,160.172Z"/><path class="cls-8" d="M146.447,160.172l-.541-.841c14.118-9.078,26.869-.076,27,.016l-.586.81C172.2,160.069,159.977,151.472,146.447,160.172Z"/><path class="cls-8" d="M170.242,160.172l-.541-.841c14.118-9.078,26.869-.076,27,.016l-.586.81C195.99,160.069,183.771,151.472,170.242,160.172Z"/><path class="cls-8" d="M220.2,159.752s-12.439-9-26.434,0"/><path class="cls-8" d="M244,159.752s-12.439-9-26.434,0"/><path class="cls-8" d="M267.791,159.752s-12.439-9-26.434,0"/><path class="cls-8" d="M265.423,160.172l-.541-.841c14.118-9.078,26.869-.076,27,.016l-.586.81C291.171,160.069,278.953,151.472,265.423,160.172Z"/><path class="cls-8" d="M98.822,160.5l-.473-.881c14.084-7.564,26.8-.064,26.929.012l-.517.856A27.732,27.732,0,0,0,98.822,160.5Z"/><path class="cls-8" d="M122.617,160.5l-.473-.881c14.085-7.564,26.8-.064,26.929.012l-.517.856A27.732,27.732,0,0,0,122.617,160.5Z"/><path class="cls-8" d="M146.412,160.5l-.473-.881c14.082-7.563,26.8-.064,26.93.012l-.517.856A27.734,27.734,0,0,0,146.412,160.5Z"/><path class="cls-8" d="M170.208,160.5l-.473-.881c14.083-7.564,26.8-.064,26.929.012l-.517.856A27.732,27.732,0,0,0,170.208,160.5Z"/><path class="cls-8" d="M220.2,160.063a28.013,28.013,0,0,0-26.434,0"/><path class="cls-8" d="M244,160.063a28.013,28.013,0,0,0-26.434,0"/><path class="cls-8" d="M267.791,160.063a28.013,28.013,0,0,0-26.434,0"/><path class="cls-8" d="M265.389,160.5l-.473-.881c14.083-7.564,26.8-.064,26.929.012l-.517.856A27.732,27.732,0,0,0,265.389,160.5Z"/><path class="cls-7" d="M126.472,168.064s-12.182,9-25.886,0"/><path class="cls-7" d="M149.774,168.064s-12.182,9-25.886,0"/><path class="cls-7" d="M173.076,168.064s-12.182,9-25.886,0"/><path class="cls-7" d="M196.378,168.064s-12.182,9-25.886,0"/><path class="cls-7" d="M219.68,168.064s-12.182,9-25.886,0"/><path class="cls-7" d="M242.982,168.064s-12.182,9-25.886,0"/><path class="cls-7" d="M266.284,168.064s-12.182,9-25.886,0"/><path class="cls-7" d="M289.586,168.064s-12.182,9-25.886,0"/><path class="cls-7" d="M126.472,167.752a26.94,26.94,0,0,1-25.886,0"/><path class="cls-7" d="M149.774,167.752a26.94,26.94,0,0,1-25.886,0"/><path class="cls-7" d="M173.076,167.752a26.94,26.94,0,0,1-25.886,0"/><path class="cls-7" d="M196.378,167.752a26.94,26.94,0,0,1-25.886,0"/><path class="cls-7" d="M219.68,167.752a26.94,26.94,0,0,1-25.886,0"/><path class="cls-7" d="M242.982,167.752a26.94,26.94,0,0,1-25.886,0"/><path class="cls-7" d="M266.284,167.752a26.94,26.94,0,0,1-25.886,0"/><path class="cls-7" d="M289.586,167.752a26.94,26.94,0,0,1-25.886,0"/><path class="cls-9" d="M32.886,157.752v-78.3a8.7,8.7,0,1,1,17.4,0v78.3"/><rect class="cls-4" x="230.086" y="27.236" width="1" height="80.5"/><rect class="cls-4" x="243.586" y="27.236" width="1" height="80.7"/><path class="cls-9" d="M72.286,93.475a8.7,8.7,0,1,0-17.4,0v21.3h-9.8v14.5h17.5a9.5,9.5,0,0,0,9.5-9.5Z"/><path class="cls-9" d="M10.886,106.452a8.7,8.7,0,1,1,17.4,0v21.3h9.8v14.5h-17.5a9.5,9.5,0,0,1-9.5-9.5v-2h-.2Z"/><polygon class="cls-10" points="52.586 195.752 29.586 195.752 17.586 156.752 64.586 156.752 52.586 195.752"/><path class="cls-8" d="M101.086,151.752a2,2,0,0,1-2-2,7,7,0,0,0-14,0,2,2,0,0,1-4,0,11,11,0,0,1,22,0A2,2,0,0,1,101.086,151.752Z"/><path class="cls-4" d="M83.086,172.113V149.752a9,9,0,1,1,18,0v22.361Z"/><circle class="cls-7" cx="92.586" cy="150.752" r="3"/><path class="cls-8" d="M209.586,148.752a17.5,17.5,0,0,1,17,0A41.087,41.087,0,0,0,209.586,148.752Z"/><path class="cls-8" d="M232.586,148.752a17.5,17.5,0,0,1,17,0A41.087,41.087,0,0,0,232.586,148.752Z"/><path class="cls-8" d="M146.287,139.752a4.96,4.96,0,0,0,0-7.222A10.553,10.553,0,0,1,146.287,139.752Z"/><path class="cls-8" d="M142.2,126.842a12.578,12.578,0,0,1-12.222,0A29.54,29.54,0,0,0,142.2,126.842Z"/><path class="cls-8" d="M142.2,142.44a12.578,12.578,0,0,0-12.222,0A29.54,29.54,0,0,1,142.2,142.44Z"/><circle class="cls-8" cx="147.586" cy="127.752" r="2"/><circle class="cls-8" cx="147.586" cy="145.752" r="2"/><path class="cls-8" d="M169.287,139.752a4.96,4.96,0,0,0,0-7.222A10.553,10.553,0,0,1,169.287,139.752Z"/><path class="cls-8" d="M165.2,126.842a12.578,12.578,0,0,1-12.222,0A29.54,29.54,0,0,0,165.2,126.842Z"/><path class="cls-8" d="M165.2,142.44a12.578,12.578,0,0,0-12.222,0A29.54,29.54,0,0,1,165.2,142.44Z"/><circle class="cls-8" cx="170.586" cy="127.752" r="2"/><circle class="cls-8" cx="170.586" cy="145.752" r="2"/><path class="cls-8" d="M192.287,139.752a4.96,4.96,0,0,0,0-7.222A10.553,10.553,0,0,1,192.287,139.752Z"/><path class="cls-8" d="M188.2,126.842a12.578,12.578,0,0,1-12.222,0A29.54,29.54,0,0,0,188.2,126.842Z"/><path class="cls-8" d="M188.2,142.44a12.578,12.578,0,0,0-12.222,0A29.54,29.54,0,0,1,188.2,142.44Z"/><circle class="cls-8" cx="193.586" cy="127.752" r="2"/><circle class="cls-8" cx="193.586" cy="145.752" r="2"/><path class="cls-8" d="M215.287,139.752a4.96,4.96,0,0,0,0-7.222A10.553,10.553,0,0,1,215.287,139.752Z"/><path class="cls-8" d="M211.2,126.842a12.578,12.578,0,0,1-12.222,0A29.54,29.54,0,0,0,211.2,126.842Z"/><path class="cls-8" d="M211.2,142.44a12.578,12.578,0,0,0-12.222,0A29.54,29.54,0,0,1,211.2,142.44Z"/><circle class="cls-8" cx="216.586" cy="127.752" r="2"/><circle class="cls-8" cx="216.586" cy="145.752" r="2"/><path class="cls-8" d="M238.287,139.752a4.96,4.96,0,0,0,0-7.222A10.553,10.553,0,0,1,238.287,139.752Z"/><path class="cls-8" d="M234.2,126.842a12.578,12.578,0,0,1-12.222,0A29.54,29.54,0,0,0,234.2,126.842Z"/><path class="cls-8" d="M234.2,142.44a12.578,12.578,0,0,0-12.222,0A29.54,29.54,0,0,1,234.2,142.44Z"/><circle class="cls-8" cx="239.586" cy="127.752" r="2"/><circle class="cls-8" cx="239.586" cy="145.752" r="2"/><path class="cls-8" d="M261.287,139.752a4.96,4.96,0,0,0,0-7.222A10.553,10.553,0,0,1,261.287,139.752Z"/><path class="cls-8" d="M257.2,126.842a12.578,12.578,0,0,1-12.222,0A29.54,29.54,0,0,0,257.2,126.842Z"/><path class="cls-8" d="M257.2,142.44a12.578,12.578,0,0,0-12.222,0A29.54,29.54,0,0,1,257.2,142.44Z"/><circle class="cls-8" cx="262.586" cy="127.752" r="2"/><circle class="cls-8" cx="262.586" cy="145.752" r="2"/><path class="cls-8" d="M284.287,139.752a4.96,4.96,0,0,0,0-7.222A10.553,10.553,0,0,1,284.287,139.752Z"/><path class="cls-8" d="M280.2,126.842a12.578,12.578,0,0,1-12.222,0A29.54,29.54,0,0,0,280.2,126.842Z"/><path class="cls-8" d="M280.2,142.44a12.578,12.578,0,0,0-12.222,0A29.54,29.54,0,0,1,280.2,142.44Z"/><circle class="cls-8" cx="285.586" cy="127.752" r="2"/><circle class="cls-8" cx="285.586" cy="145.752" r="2"/><path class="cls-11" d="M241.586,127.752s-11.492-7.363-16.167-7.363c-2.337,0-14.945,13.352-23.172,29.446l14.071-3.015s9.056-5.046,11.056-9.046c0,0,11.212,7.978,14.212,8.978"/><path class="cls-5" d="M202.246,149.835c8.227-16.094,20.835-29.446,23.172-29.446l3.06,1.363Z"/><path class="cls-11" d="M243.588,143.652s-28.162-3.8-67,13.39c0,0,44.091,5.616,65.935,2.738Z"/><path class="cls-5" d="M176.589,157.042s32.148-9.1,47.067-9.478c15.839-.4,19.517,2.367,19.517,2.367l.414-6.279S215.426,139.851,176.589,157.042Z"/><path class="cls-11" d="M278.586,114.752c-2.008.292-5.558,4.184-6.27,6.084-.695,1.853-1.65,4.545-1.534,6.532a.279.279,0,0,0,.44.279c2.673-.835,3.968-3.689,5.821-5.788C279.393,119.2,298.524,111.847,278.586,114.752Z"/><path class="cls-5" d="M264.695,136.955c1.25-.821,4.138-3.964,1.99-5.344a3.273,3.273,0,0,0-.955-.362c-3.519-.925-7.166-1.728-10.773-1.246a3.915,3.915,0,0,0-1.91.653c-2.548,1.97,3.027,6.243,4.39,7.359a2.835,2.835,0,0,0,3.525.6A16.725,16.725,0,0,0,264.695,136.955Z"/><path class="cls-12" d="M299.586,111.752h-8l-11,3c-1.108.3-2.736,2.183-3.785,2.878-2.392,1.586-6.217,2.122-9.217,3.122a10.166,10.166,0,0,0,0,6c.746,2.237-8.6,9.873-11,12l-16.5-12.5-3.75,35.424s16.91-.627,22.5-.627c13.747,0,13.4-15.527,13.4-15.527l6.816-6.364a20.919,20.919,0,0,1,4.088-2.98l13.726-5.574a11.87,11.87,0,0,0,6.959-7.775l.617-2.187a7.3,7.3,0,0,0-1.1-4.306Z"/><path class="cls-13" d="M299.986,112.24c-7.877,10.2-16.671,19.618-26.712,27.136-8.747,6.548-22.064,13.039-33.216,9.5a14.8,14.8,0,0,1-2.269-.927l-1.453,13.726s16.91-.627,22.5-.627c13.747,0,13.4-15.527,13.4-15.527l6.816-6.364c1.237-1.155,11.632-1,13.11-1.825l4.7-6.729a11.871,11.871,0,0,0,6.958-7.775l.617-2.187a7.3,7.3,0,0,0-1.1-4.306Z"/><path class="cls-11" d="M292.972,130.337c6.089-1.089,8.8-5.485,8.6-11.365-.176-5.271-3.807-7.6-8.227-3.621a24.538,24.538,0,0,0-6.032,8.178c-.688,1.677-1.105,3.707-.1,5.216C288.382,130.5,290.892,130.707,292.972,130.337Z"/><path class="cls-5" d="M281.572,143.408l13.173-.293c2.5-.056,8.486,1.257,9.791-1.424a7.654,7.654,0,0,0,.517-3.358c.013-5.9-.033-13.584-.139-19.486a8.092,8.092,0,0,0-.325-2.57c-1.269-3.581-7.2-4.246-9.75-1.69-2.612,2.617-1.635,10.11-.67,13.13.592,1.852,1.618,3.845,1.883,5.705-5.058,1.345-18.98,3.415-20.057,8.043-.538,2.311-.258,5.332,1.72,9.288C277.713,150.753,280.271,150.166,281.572,143.408Z"/><path class="cls-11" d="M304.913,118.847a8.074,8.074,0,0,0-.325-2.571c-1.269-3.581-7.2-4.246-9.75-1.69a4.844,4.844,0,0,0-1.073,1.821c8.565-5.132,9.166,13.391,7.279,17.507-2.039,4.449-7.548,5.22-12.091,6a86.856,86.856,0,0,1-12.913,1.408c-.014.047-.035.093-.045.14-.538,2.312-.258,5.332,1.72,9.288,0,0,2.558-.587,3.859-7.346l13.173-.293c2.5-.056,8.486,1.257,9.791-1.424a7.65,7.65,0,0,0,.517-3.358C305.065,132.43,305.019,124.748,304.913,118.847Z"/><polygon class="cls-14" points="270.493 138.79 256.099 138.108 249.513 117.839 262.412 112.899 270.493 138.79"/><path class="cls-5" d="M254.346,127.99c-.216-1.011,3.43-2.056.5-3.346-1.3-.574-4.125.507-4.9,1.59-.745,1.047-.3,2.489.173,3.685l.754,1.915a3.839,3.839,0,0,0,1.1,1.761c.978.732,2.358.378,3.517-.007a.973.973,0,0,0,.551-.337c.184-.292.014-.67-.147-.976A16.655,16.655,0,0,1,254.346,127.99Z"/><path class="cls-5" d="M297.642,99.18a15.609,15.609,0,0,0,1.574-6.2,10.593,10.593,0,0,0-.734-4.61c-1.434-3.344-7.21-5.421-10.847-5.536-2.582-.082-5.408,2.309-7.735,3.438-1.83.888-2.357,1.746-3.437,3.438a11.022,11.022,0,0,0-1.876,8.049c.39,2.335,1.758,4.451,2.805,6.536a70.827,70.827,0,0,0,4.017,6.98c.977,1.495,1.786-.336,2.976-.357a3.97,3.97,0,0,0,2.452-1.076c.16,1.354.75,3.917,1.907,4.02a55.645,55.645,0,0,1,5.8-3.214c1.649-.815,2.768.564,2.042-.888a10.652,10.652,0,0,1-1.369-5.63C295.454,102.413,296.9,100.7,297.642,99.18Z"/><path class="cls-5" d="M288.661,112.708c-4.849.924-9.8,4.275-11.075,9.044,3.216-1.758,6.75-3.739,9.794-5.782,3.42-2.3,6.79-4.218,11.79-4.218-1.083-1-2.083-1.729-2.917-2.5"/><path class="cls-11" d="M298.733,111.978a.373.373,0,0,1-.171-.041,7.25,7.25,0,0,1-3.6-7.91.375.375,0,0,1,.729.18,6.473,6.473,0,0,0,3.215,7.063.375.375,0,0,1-.171.709Z"/><path class="cls-15" d="M280.154,92c1.344,1.846,2.851,3.824,5.083,4.62,2.409.859,5.094.193,7.481-.39.625-.153.36-1.117-.266-.964-2.07.506-4.406,1.135-6.523.528-2.173-.624-3.644-2.555-4.912-4.3-.375-.515-1.243-.017-.863.5Z"/><path d="M291.932,84.452a2.6,2.6,0,0,1-.312-3.243,3.909,3.909,0,0,1,3-1.641,4.958,4.958,0,0,1,4.886,2.862,4.316,4.316,0,0,1-1.7,5.268l-.674-.41"/><path class="cls-13" d="M294.968,84.187A128.487,128.487,0,0,0,302.284,71c.277-.577-.584-1.085-.863-.5A128.487,128.487,0,0,1,294.1,83.682c-.346.545.519,1.047.863.5Z"/><path class="cls-13" d="M287.135,79.3l3.449,4.619c.381.51,1.249.012.863-.5L288,78.8c-.381-.51-1.249-.012-.863.5Z"/><path d="M275.586,100.752a11.078,11.078,0,0,1,5-9c3.56,5,5.763,5.572,12,4l2.583,8.083c8.167.833,7.25-11.333,5.75-14.333-3.31-6.62-11.849-7.925-18.323-5.44-7.01,2.69-9.089,9.03-8.01,14.69Z"/><path class="cls-5" d="M282.336,111.835c4.1-1.041,8.073-2.158,10.081-5.882"/><rect class="cls-13" x="282.866" y="96.252" width="10.44" height="1" transform="translate(-15.649 86.776) rotate(-16.683)"/><path class="cls-5" d="M291.739,96.7c.108-1.026.346-2.237,1.3-2.641a2.155,2.155,0,0,1,2.169.539,3.8,3.8,0,0,1-2.942,6.643"/><path d="M284.329,88.484a28.978,28.978,0,0,0,7.312,4.128c.6.232.861-.734.266-.964a27.31,27.31,0,0,1-6.87-3.871c-.5-.389-1.216.314-.707.707Z"/><ellipse class="cls-12" cx="281.586" cy="98.752" rx="2" ry="3" transform="translate(-16.777 103.439) rotate(-20.226)"/><ellipse class="cls-12" cx="275.89" cy="101.249" rx="1.867" ry="2.964" transform="translate(-17.992 101.624) rotate(-20.226)"/><path class="cls-15" d="M282.086,87.252c.45.853.906,1.667,1.4,2.439a10.708,10.708,0,0,0,1.684,2.085,5.665,5.665,0,0,0,2.2,1.306,7.494,7.494,0,0,0,2.717.169,4.635,4.635,0,0,1-2.874.6,5.087,5.087,0,0,1-2.726-1.342A7.5,7.5,0,0,1,282.8,90.06,8.058,8.058,0,0,1,282.086,87.252Z"/><path class="cls-15" d="M285.086,87.227c.371.569.714,1.108,1.07,1.619a8.36,8.36,0,0,0,1.157,1.378,4.113,4.113,0,0,0,1.429.892,5.924,5.924,0,0,0,1.843.236,2.975,2.975,0,0,1-2,.529,3.475,3.475,0,0,1-1.956-.928,4.9,4.9,0,0,1-1.158-1.738A4.829,4.829,0,0,1,285.086,87.227Z"/><path class="cls-13" d="M273.3,127.069a8.037,8.037,0,0,0,.875,2.615,6.468,6.468,0,0,0,4.009,3.181,8.074,8.074,0,0,0,2.745.26,5.429,5.429,0,0,1-7.629-6.057Z"/><path class="cls-13" d="M245.086,135.252a28.014,28.014,0,0,1,1.492,5.41,27.694,27.694,0,0,1,.508,5.59,27.662,27.662,0,0,1-1.492-5.411A27.983,27.983,0,0,1,245.086,135.252Z"/><path class="cls-13" d="M250.541,138.752a8.628,8.628,0,0,1,1.037,2.91,8.531,8.531,0,0,1,.054,3.09,9.552,9.552,0,0,1-1.091-6Z"/><path class="cls-8" d="M308.086,151.752a2,2,0,0,1-2-2,7,7,0,0,0-14,0,2,2,0,1,1-4,0,11,11,0,0,1,22,0A2,2,0,0,1,308.086,151.752Z"/><path class="cls-4" d="M290.086,172.113V149.752a9,9,0,0,1,18,0v22.361Z"/><circle class="cls-7" cx="299.586" cy="150.752" r="3"/><path class="cls-5" d="M275.334,118.085a4.566,4.566,0,0,1,4.166-3.007c.642-.019.645-1.019,0-1a5.6,5.6,0,0,0-5.13,3.742c-.218.607.748.868.964.266Z"/><path class="cls-5" d="M295.667,116s-3,.167-6.123,6.564c-.681,1.394-.094,3.066,1.457,3.1,1.771.042,5.583-3,6-1.167"/><path class="cls-11" d="M282.141,111.791a47.048,47.048,0,0,1,4.869-2.045,19.516,19.516,0,0,0,4.587-2.436,9.227,9.227,0,0,1-4.309,3.133A25.735,25.735,0,0,1,282.141,111.791Z"/></svg>